#N canvas 278 63 448 416 10;
#X obj 220 317 *~;
#X obj 220 363 clip~ -1 1;
#X obj 220 395 dac~;
#X obj 315 140 vsl 15 100 0 1 0 0 empty empty vol 0 -9 0 10 -262130
-1 -1 8000 1;
#X floatatom 315 257 5 0 0 0 - - -;
#X msg 315 278 \$1 200;
#X obj 315 300 line~;
#X obj 220 105 catch~ out;
#X obj 255 142 key;
#X obj 255 164 sel 32;
#X obj 255 186 f;
#X obj 285 186 + 1;
#X obj 255 208 mod 2;
#X obj 255 231 tgl 15 0 empty empty empty 17 7 0 10 -262144 -1 -1 1
1;
#X obj 220 341 hip~ 5;
#X obj 220 291 *~;
#X obj -9 185 throw~ out;
#X obj 274 11 hsl 100 15 50 180 0 0 empty empty BPM -2 8 0 10 -228856
-1 -1 1400 1;
#X floatatom 271 31 5 0 0 0 - - -;
#X obj -9 10 r S1;
#X obj 11 120 r S2;
#X obj 220 11 tgl 25 0 empty empty empty 17 7 0 10 -262144 -1 -1 1
1;
#X text 254 124 panic;
#N canvas 20 287 281 331 master 0;
#X obj 13 206 bng 15 250 50 0 empty empty empty 17 7 0 10 -262144 -1
-1;
#X obj 13 226 t b b;
#X obj 53 243 delay 100;
#X floatatom 123 49 5 0 0 0 - - -;
#X obj 123 70 swap 60000;
#X obj 123 95 /;
#X obj 13 265 s S1;
#X obj 53 265 s S2;
#X obj 13 156 tgl 15 0 empty empty empty 17 7 0 10 -262144 -1 -1 1
1;
#X obj 13 178 metro;
#X floatatom 123 117 5 0 0 0 - - -;
#X obj 123 183 / 100;
#X floatatom 123 227 5 0 0 0 - - -;
#X obj 123 205 * 35;
#X obj 123 161 line;
#X msg 123 138 \$1 4000;
#X obj 123 14 inlet BPM;
#X obj 13 14 inlet toggle;
#X obj 123 306 outlet delay;
#X connect 0 0 1 0;
#X connect 1 0 6 0;
#X connect 1 1 2 0;
#X connect 2 0 7 0;
#X connect 3 0 4 0;
#X connect 4 0 5 0;
#X connect 4 1 5 1;
#X connect 5 0 10 0;
#X connect 8 0 9 0;
#X connect 9 0 0 0;
#X connect 10 0 15 0;
#X connect 11 0 13 0;
#X connect 12 0 2 1;
#X connect 12 0 18 0;
#X connect 13 0 12 0;
#X connect 14 0 9 1;
#X connect 14 0 11 0;
#X connect 15 0 14 0;
#X connect 16 0 3 0;
#X connect 17 0 8 0;
#X restore 220 52 pd master;
#X obj 4 60 r S1;
#X obj 38 60 r S2;
#X obj 113 311 oscilloscopio;
#X obj -9 35 onebeat_04 63 5 0 0.65;
#X obj 220 75 s delay;
#X obj 72 60 r delay;
#X obj 11 145 onebeat_04 42 3 0.5 1;
#X obj 4 85 murmur_03 0.3 50 0.5;
#X msg 255 252 \$1 200;
#X obj 255 274 line~;
#X connect 0 0 14 0;
#X connect 1 0 2 0;
#X connect 1 0 2 1;
#X connect 3 0 4 0;
#X connect 4 0 5 0;
#X connect 5 0 6 0;
#X connect 6 0 0 1;
#X connect 7 0 15 0;
#X connect 7 0 26 0;
#X connect 8 0 9 0;
#X connect 9 0 10 0;
#X connect 10 0 11 0;
#X connect 10 0 12 0;
#X connect 11 0 10 1;
#X connect 12 0 13 0;
#X connect 13 0 32 0;
#X connect 14 0 1 0;
#X connect 15 0 0 0;
#X connect 17 0 18 0;
#X connect 18 0 23 1;
#X connect 19 0 27 0;
#X connect 20 0 30 0;
#X connect 21 0 23 0;
#X connect 23 0 28 0;
#X connect 24 0 31 0;
#X connect 25 0 31 0;
#X connect 27 0 16 0;
#X connect 29 0 31 1;
#X connect 30 0 16 0;
#X connect 31 0 16 0;
#X connect 32 0 33 0;
#X connect 33 0 15 1;
