#N canvas 537 38 714 443 10;
#X obj 510 268 *~;
#X obj 510 314 clip~ -1 1;
#X obj 510 346 dac~;
#X obj 605 100 vsl 15 100 0 1 0 0 empty empty vol 0 -9 0 10 -262130
-1 -1 2000 1;
#X floatatom 605 208 5 0 0 0 - - -;
#X msg 605 229 \$1 200;
#X obj 605 251 line~;
#X obj 510 65 catch~ out;
#X obj 545 102 key;
#X obj 545 124 sel 32;
#X obj 545 146 f;
#X obj 575 146 + 1;
#X obj 545 168 mod 2;
#X obj 545 191 tgl 15 0 empty empty empty 17 7 0 10 -262144 -1 -1 1
1;
#X obj 510 292 hip~ 5;
#X obj 545 214 sig~;
#X obj 510 231 *~;
#X obj 33 33 vsl 15 100 20 100 1 0 empty empty f 0 -9 0 10 -203904
-1 -1 2700 1;
#X obj 73 33 vsl 15 100 0 5 0 0 empty empty v 0 -9 0 10 -261682 -1
-1 6100 1;
#X obj 113 33 vsl 15 100 10 1000 1 0 empty empty filt 0 -9 0 10 -204786
-1 -1 1600 1;
#X obj 20 186 onebeat;
#X obj 20 226 throw~ out;
#X obj 564 1 hsl 100 15 50 180 0 0 empty empty BPM -2 8 0 10 -228856
-1 -1 800 1;
#X floatatom 561 21 5 0 0 0 - - -;
#X obj 20 -10 r S1;
#X obj 330 -10 r S2;
#X obj 510 1 tgl 25 0 empty empty empty 17 7 0 10 -262144 -1 -1 1 1
;
#X floatatom 73 150 5 0 0 0 - - -;
#X floatatom 33 150 5 0 0 0 - - -;
#X floatatom 113 150 5 0 0 0 - - -;
#X obj 330 186 onebeat;
#X obj 343 33 vsl 15 100 20 100 1 0 empty empty f 0 -9 0 10 -203904
-1 -1 7500 1;
#X obj 383 33 vsl 15 100 0 5 0 0 empty empty v 0 -9 0 10 -261682 -1
-1 4100 1;
#X obj 423 33 vsl 15 100 10 1000 1 0 empty empty filt 0 -9 0 10 -204786
-1 -1 400 1;
#X floatatom 383 150 5 0 0 0 - - -;
#X floatatom 343 150 5 0 0 0 - - -;
#X floatatom 423 150 5 0 0 0 - - -;
#X text 544 84 panic;
#X obj 221 33 vsl 15 100 20 100 1 0 empty empty f 0 -9 0 10 -203904
-1 -1 6600 1;
#X obj 261 33 vsl 15 100 0 1 0 0 empty empty v 0 -9 0 10 -261682 -1
-1 3100 1;
#X floatatom 261 150 5 0 0 0 - - -;
#X floatatom 221 150 5 0 0 0 - - -;
#N canvas 20 287 281 331 master 1;
#X obj 13 206 bng 15 250 50 0 empty empty empty 17 7 0 10 -262144 -1
-1;
#X obj 13 226 t b b;
#X obj 53 243 delay 100;
#X floatatom 123 49 5 0 0 0 - - -;
#X obj 123 70 swap 60000;
#X obj 123 95 /;
#X obj 13 265 s S1;
#X obj 53 265 s S2;
#X obj 13 156 tgl 15 0 empty empty empty 17 7 0 10 -262144 -1 -1 1
1;
#X obj 13 178 metro;
#X floatatom 123 117 5 0 0 0 - - -;
#X obj 123 183 / 100;
#X floatatom 123 227 5 0 0 0 - - -;
#X obj 123 205 * 35;
#X obj 123 161 line;
#X msg 123 138 \$1 4000;
#X obj 123 14 inlet BPM;
#X obj 13 14 inlet toggle;
#X connect 0 0 1 0;
#X connect 1 0 6 0;
#X connect 1 1 2 0;
#X connect 2 0 7 0;
#X connect 3 0 4 0;
#X connect 4 0 5 0;
#X connect 4 1 5 1;
#X connect 5 0 10 0;
#X connect 8 0 9 0;
#X connect 9 0 0 0;
#X connect 10 0 15 0;
#X connect 11 0 13 0;
#X connect 12 0 2 1;
#X connect 13 0 12 0;
#X connect 14 0 9 1;
#X connect 14 0 11 0;
#X connect 15 0 14 0;
#X connect 16 0 3 0;
#X connect 17 0 8 0;
#X restore 510 42 pd master;
#X obj 196 -10 r S1;
#N canvas 85 289 688 460 murmur 0;
#X obj 170 83 bp~ 500 5;
#X floatatom 244 56 5 0 0 0 - - -;
#X obj 170 5 noise~;
#X obj 170 118 *~;
#X msg 311 125 \$1 20;
#X obj 311 147 line~;
#X obj 170 213 *~;
#X obj 30 5 inlet bang;
#X obj 244 5 inlet freq;
#X obj 311 5 inlet vol;
#X obj 311 102 * 100;
#X obj 170 159 *~;
#X msg 30 27 0 \, 1 50 0 \, 0 500 50;
#X obj 30 49 vline~;
#X obj 170 244 outlet~;
#X connect 0 0 3 1;
#X connect 0 0 3 0;
#X connect 1 0 0 1;
#X connect 2 0 0 0;
#X connect 3 0 11 1;
#X connect 4 0 5 0;
#X connect 5 0 6 1;
#X connect 6 0 14 0;
#X connect 7 0 12 0;
#X connect 8 0 1 0;
#X connect 9 0 10 0;
#X connect 10 0 4 0;
#X connect 11 0 6 0;
#X connect 12 0 13 0;
#X connect 13 0 11 0;
#X restore 196 186 pd murmur;
#X connect 0 0 14 0;
#X connect 1 0 2 0;
#X connect 1 0 2 1;
#X connect 3 0 4 0;
#X connect 4 0 5 0;
#X connect 5 0 6 0;
#X connect 6 0 0 1;
#X connect 7 0 16 0;
#X connect 8 0 9 0;
#X connect 9 0 10 0;
#X connect 10 0 11 0;
#X connect 10 0 12 0;
#X connect 11 0 10 1;
#X connect 12 0 13 0;
#X connect 13 0 15 0;
#X connect 14 0 1 0;
#X connect 15 0 16 1;
#X connect 16 0 0 0;
#X connect 17 0 28 0;
#X connect 18 0 27 0;
#X connect 19 0 29 0;
#X connect 20 0 21 0;
#X connect 22 0 23 0;
#X connect 23 0 42 1;
#X connect 24 0 20 0;
#X connect 25 0 30 0;
#X connect 26 0 42 0;
#X connect 27 0 20 2;
#X connect 28 0 20 1;
#X connect 29 0 20 3;
#X connect 30 0 21 0;
#X connect 31 0 35 0;
#X connect 32 0 34 0;
#X connect 33 0 36 0;
#X connect 34 0 30 2;
#X connect 35 0 30 1;
#X connect 36 0 30 3;
#X connect 38 0 41 0;
#X connect 39 0 40 0;
#X connect 40 0 44 2;
#X connect 41 0 44 1;
#X connect 43 0 44 0;
#X connect 44 0 21 0;
