#N canvas 297 58 818 572 10;
#X msg 587 64 \; pd dsp 1;
#X msg 587 104 \; pd dsp 0;
#X obj 185 111 noise~;
#X obj 185 150 lop~ 500;
#X msg 327 101 clear;
#X obj 329 123 hsl 128 15 20 1000 1 0 empty empty freq -2 8 0 10 -261682
-1 -1 0 1;
#X floatatom 326 143 5 0 0 0 - - -;
#X obj 185 514 dac~;
#X obj 185 460 hip~;
#X obj 185 482 clip~ -1 1;
#X obj 536 268 vsl 15 100 0 1 0 0 empty empty Vol 0 -9 0 10 -262130
-1 -1 0 1;
#X floatatom 536 376 5 0 0 0 - - -;
#X msg 536 397 \$1 20;
#X obj 536 419 line~;
#X obj 185 436 *~;
#X obj 215 192 *~;
#X obj 215 221 *~;
#X obj 308 305 clip~ -1 1;
#X obj 442 198 vsl 15 100 0.1 1 0 0 empty empty Vol 0 -9 0 10 -262130
-1 -1 7700 1;
#X floatatom 442 306 5 0 0 0 - - -;
#X msg 442 327 \$1 20;
#X obj 442 349 line;
#X obj 308 337 -~;
#X obj 649 391 oscilloscopio;
#X obj 367 397 sig~ 1;
#X obj 367 424 /~;
#X obj 417 397 sig~;
#X obj 308 371 /~;
#X connect 2 0 3 0;
#X connect 2 0 17 0;
#X connect 3 0 15 1;
#X connect 3 0 15 0;
#X connect 3 0 14 0;
#X connect 4 0 3 0;
#X connect 5 0 6 0;
#X connect 6 0 3 1;
#X connect 8 0 9 0;
#X connect 9 0 7 0;
#X connect 9 0 7 1;
#X connect 10 0 11 0;
#X connect 11 0 12 0;
#X connect 12 0 13 0;
#X connect 13 0 14 1;
#X connect 14 0 8 0;
#X connect 15 0 16 1;
#X connect 15 0 16 0;
#X connect 17 0 22 0;
#X connect 18 0 19 0;
#X connect 19 0 20 0;
#X connect 19 0 22 1;
#X connect 19 0 17 1;
#X connect 19 0 26 0;
#X connect 20 0 21 0;
#X connect 22 0 27 0;
#X connect 24 0 25 0;
#X connect 26 0 25 1;
#X connect 26 0 27 1;
#X connect 27 0 23 0;
