#N canvas 528 59 662 690 10;
#X obj 39 252 noise~;
#X obj 39 522 hip~ 5;
#X obj 39 545 clip~ -1 1;
#X obj 39 572 dac~;
#X obj 137 311 vsl 15 100 0 1 0 0 empty empty vol 0 -9 0 10 -262130
-1 -1 2000 1;
#X floatatom 137 424 5 0 0 0 - - -;
#X msg 137 445 \$1 20;
#X obj 137 467 line~;
#X obj 39 387 *~;
#X obj 395 74 tgl 15 0 empty empty empty 17 7 0 10 -262144 -1 -1 0
1;
#X msg 395 104 \; pd dsp \$1;
#X obj 462 354 noise~;
#X obj 462 416 env~;
#X floatatom 462 438 5 0 0 0 - - -;
#X obj 462 390 lop~;
#X obj 520 354 hsl 100 15 20 5000 1 0 empty empty freq -2 8 0 10 -261682
-1 -1 400 1;
#X floatatom 517 374 5 0 0 0 - - -;
#X obj 462 477 moses 50;
#X obj 507 500 moses 100;
#X obj 462 525 bng 15 250 50 0 empty empty empty 17 7 0 10 -262144
-1 -1;
#X obj 507 525 bng 15 250 50 0 empty empty empty 17 7 0 10 -262144
-1 -1;
#X obj 39 294 lop~;
#X obj 97 253 hsl 100 15 20 5000 1 0 empty empty freq -2 8 0 10 -261682
-1 -1 8400 1;
#X floatatom 94 273 5 0 0 0 - - -;
#X obj 39 322 *~;
#X obj 39 356 *~;
#X obj 184 311 vsl 15 100 1 10 0 0 empty empty vol_(1-10) 0 -9 0 10
-262130 -1 -1 0 1;
#X floatatom 184 423 5 0 0 0 - - -;
#X msg 184 444 \$1 20;
#X obj 184 466 line~;
#X obj 229 363 key;
#X obj 229 386 select 32;
#X obj 229 416 f;
#X obj 265 416 + 1;
#X floatatom 229 438 5 0 0 0 - - -;
#X obj 229 459 mod 2;
#X obj 229 484 tgl 15 0 empty empty empty 17 7 0 10 -262144 -1 -1 1
1;
#X obj 303 362 loadbang;
#X msg 303 384 0;
#X obj 39 497 *~;
#X obj 39 435 *~;
#X obj 48 39 clip~ \$1 1;
#X obj 345 -44 hsl 100 15 0.01 1 1 0 empty empty down-clip -2 8 0 10
-261234 -1 -1 0 1;
#X floatatom 342 -24 5 0 0 0 - - -;
#X obj 48 67 *~;
#X obj 211 91 sig~ 1;
#X obj 211 139 /~;
#X obj 241 118 -~;
#X obj 256 91 sig~;
#X connect 0 0 21 0;
#X connect 1 0 2 0;
#X connect 2 0 3 1;
#X connect 2 0 3 0;
#X connect 4 0 5 0;
#X connect 5 0 6 0;
#X connect 6 0 7 0;
#X connect 7 0 8 1;
#X connect 8 0 40 0;
#X connect 9 0 10 0;
#X connect 11 0 14 0;
#X connect 12 0 13 0;
#X connect 13 0 17 0;
#X connect 14 0 12 0;
#X connect 15 0 16 0;
#X connect 16 0 14 1;
#X connect 17 0 19 0;
#X connect 17 1 18 0;
#X connect 18 0 20 0;
#X connect 21 0 24 1;
#X connect 21 0 24 0;
#X connect 22 0 23 0;
#X connect 23 0 21 1;
#X connect 24 0 25 1;
#X connect 24 0 25 0;
#X connect 25 0 8 0;
#X connect 26 0 27 0;
#X connect 27 0 28 0;
#X connect 28 0 29 0;
#X connect 29 0 40 1;
#X connect 30 0 31 0;
#X connect 31 0 32 0;
#X connect 32 0 33 0;
#X connect 32 0 34 0;
#X connect 33 0 32 1;
#X connect 34 0 35 0;
#X connect 35 0 36 0;
#X connect 36 0 39 1;
#X connect 37 0 38 0;
#X connect 38 0 32 1;
#X connect 39 0 1 0;
#X connect 40 0 39 0;
#X connect 41 0 44 0;
#X connect 42 0 43 0;
#X connect 43 0 48 0;
#X connect 45 0 47 0;
#X connect 45 0 46 0;
#X connect 46 0 44 1;
#X connect 47 0 46 1;
#X connect 48 0 47 1;
