#N canvas 5 63 905 620 10;
#X obj 149 264 line~;
#X floatatom 164 81 5 0 0 1 f - -;
#X obj 164 102 swap 1000;
#X obj 164 124 /;
#X floatatom 164 146 5 0 0 1 t_(ms) - -;
#X floatatom 271 80 5 0 0 1 cicli - -;
#X obj 164 179 *;
#X msg 149 239 0 \, 1 \$1 0;
#X obj 149 217 f;
#X obj 149 308 *~;
#X obj 298 291 int;
#X obj 51 81 bng 15 250 50 0 empty empty empty 17 7 0 10 -262144 -1
-1;
#X obj 149 330 -~ 0.25;
#X obj 149 352 cos~;
#X floatatom 204 208 5 0 0 0 - - -;
#X obj 271 162 t b f;
#X obj 370 310 *~;
#X obj 370 259 sig~ 1;
#X obj 370 281 -~;
#X obj 149 377 *~;
#X text 368 233 inviluppo;
#X obj 51 37 inlet bang;
#X obj 164 37 inlet freq;
#X obj 271 37 inlet cicli;
#X obj 631 37 inlet vol;
#X obj 149 512 *~;
#X obj 149 535 outlet~;
#X msg 631 473 \$1 20;
#X obj 631 495 line~;
#X obj 149 446 clip~ -1 1;
#X obj 441 37 inlet overdrive;
#X obj 149 412 *~;
#X msg 441 373 \$1 20;
#X obj 441 395 line~;
#X obj 441 329 min 5;
#X obj 149 475 lop~;
#X obj 541 37 inlet filt_f;
#X obj 541 458 f;
#X obj 441 351 max 1;
#X obj 773 37 inlet armonica;
#X obj 720 97 * 2;
#X obj 720 121 swap 1000;
#X obj 720 143 /;
#X floatatom 720 165 5 0 0 1 t_(ms) - -;
#X obj 705 274 line~;
#X obj 720 189 *;
#X msg 705 249 0 \, 1 \$1 0;
#X obj 705 227 f;
#X obj 705 318 *~;
#X obj 705 340 -~ 0.25;
#X obj 705 362 cos~;
#X obj 822 320 *~;
#X obj 822 269 sig~ 1;
#X obj 822 291 -~;
#X text 820 243 inviluppo;
#X obj 705 389 *~;
#X msg 773 350 \$1 20;
#X obj 773 372 line~;
#X connect 0 0 9 0;
#X connect 0 0 18 1;
#X connect 1 0 2 0;
#X connect 1 0 40 0;
#X connect 2 0 3 0;
#X connect 2 1 3 1;
#X connect 3 0 4 0;
#X connect 4 0 6 0;
#X connect 5 0 15 0;
#X connect 6 0 8 1;
#X connect 6 0 14 0;
#X connect 7 0 0 0;
#X connect 8 0 7 0;
#X connect 9 0 12 0;
#X connect 10 0 9 1;
#X connect 11 0 8 0;
#X connect 11 0 47 0;
#X connect 12 0 13 0;
#X connect 13 0 19 0;
#X connect 15 0 6 0;
#X connect 15 1 6 1;
#X connect 15 1 10 0;
#X connect 16 0 19 1;
#X connect 17 0 18 0;
#X connect 18 0 16 1;
#X connect 18 0 16 0;
#X connect 19 0 31 0;
#X connect 21 0 11 0;
#X connect 22 0 1 0;
#X connect 23 0 5 0;
#X connect 24 0 27 0;
#X connect 25 0 26 0;
#X connect 27 0 28 0;
#X connect 28 0 25 1;
#X connect 29 0 35 0;
#X connect 30 0 34 0;
#X connect 31 0 29 0;
#X connect 32 0 33 0;
#X connect 33 0 31 1;
#X connect 34 0 38 0;
#X connect 35 0 25 0;
#X connect 36 0 37 0;
#X connect 37 0 35 1;
#X connect 38 0 32 0;
#X connect 39 0 56 0;
#X connect 40 0 41 0;
#X connect 41 0 42 0;
#X connect 41 1 42 1;
#X connect 42 0 43 0;
#X connect 43 0 45 0;
#X connect 44 0 48 0;
#X connect 44 0 53 1;
#X connect 45 0 47 1;
#X connect 46 0 44 0;
#X connect 47 0 46 0;
#X connect 48 0 49 0;
#X connect 49 0 50 0;
#X connect 50 0 55 0;
#X connect 52 0 53 0;
#X connect 53 0 51 1;
#X connect 53 0 51 0;
#X connect 55 0 19 0;
#X connect 56 0 57 0;
#X connect 57 0 55 1;
