#N canvas 524 49 655 646 10;
#X floatatom 165 75 5 0 0 1 Hz - -;
#X obj 165 96 swap 1000;
#X obj 165 118 /;
#X floatatom 165 140 5 0 0 0 - - -;
#X obj 165 161 / 4;
#X obj 165 183 * 5;
#X floatatom 165 205 5 0 0 1 ms_rampa - -;
#X msg 95 321 0 \, 1.25 40.2951;
#X msg 165 280 set 0 \,;
#X msg 216 279 addcomma;
#X msg 285 279 add2 1.25;
#X obj 165 237 t f b b b;
#X msg 353 279 add2 \$1;
#X obj 165 41 inlet freq;
#X obj 260 39 inlet volume;
#X obj 450 39 inlet filter_f;
#X obj 95 41 inlet bang;
#X obj 95 387 cos~;
#X obj 95 365 line~;
#X obj 95 410 lop~ 20;
#X obj 95 487 *~;
#X floatatom 260 427 5 0 0 0 - - -;
#X msg 260 448 \$1 20;
#X obj 260 470 line~;
#X obj 95 569 outlet~;
#X obj 450 393 f;
#X obj 95 544 clip~ -1 1;
#X obj 95 519 hip~ 20;
#X connect 0 0 1 0;
#X connect 1 0 2 0;
#X connect 1 1 2 1;
#X connect 2 0 3 0;
#X connect 3 0 4 0;
#X connect 4 0 5 0;
#X connect 5 0 6 0;
#X connect 6 0 11 0;
#X connect 7 0 18 0;
#X connect 8 0 7 0;
#X connect 9 0 7 0;
#X connect 10 0 7 0;
#X connect 11 0 12 0;
#X connect 11 1 10 0;
#X connect 11 2 9 0;
#X connect 11 3 8 0;
#X connect 12 0 7 0;
#X connect 13 0 0 0;
#X connect 14 0 21 0;
#X connect 15 0 25 0;
#X connect 16 0 7 0;
#X connect 17 0 19 0;
#X connect 18 0 17 0;
#X connect 19 0 20 0;
#X connect 20 0 27 0;
#X connect 21 0 22 0;
#X connect 22 0 23 0;
#X connect 23 0 20 1;
#X connect 25 0 19 1;
#X connect 26 0 24 0;
#X connect 27 0 26 0;
