#N canvas 171 94 259 128 10;
#X obj 169 69 metro 125;
#X obj 119 93 tabwrite~ \$0-A;
#N canvas 0 22 450 278 (subpatch) 0;
#X array \$0-A 2051 float 2;
#X coords 0 1 2050 -1 100 100 2 0 0;
#X restore 10 10 graph;
#X obj 169 48 tgl 15 0 empty empty empty 17 7 0 10 -262144 -1 -1 0
1;
#X obj 119 10 inlet~;
#X obj 169 10 loadbang;
#X connect 0 0 1 0;
#X connect 3 0 0 0;
#X connect 4 0 1 0;
#X connect 5 0 3 0;
#X coords 0 -1 1 1 100 100 2 10 10;
